<svg data-v-0dd9719b="" version="1.0" xmlns="http://www.w3.org/2000/svg" xmlns:xlink="http://www.w3.org/1999/xlink" width="100%" height="100%" viewBox="0 0 340.000000 250.000000" preserveAspectRatio="xMidYMid meet" color-interpolation-filters="sRGB" style="margin: auto;"> <rect data-v-0dd9719b="" x="0" y="0" width="100%" height="100%" fill="#ffffff" fill-opacity="1" class="background"></rect> <rect data-v-0dd9719b="" x="0" y="0" width="100%" height="100%" fill="url(#watermark)" fill-opacity="1" class="watermarklayer"></rect> <g data-v-0dd9719b="" fill="#0a0619" class="icon-text-wrapper icon-svg-group iconsvg" transform="translate(46.665000915527344,95)"><g class="iconsvg-imagesvg" transform="translate(0,0)" mask="url(#b40c3d70-8f0c-4c43-80e2-6d1cd3440251)"><g><rect fill="#0a0619" fill-opacity="0" stroke-width="2" x="0" y="0" width="60" height="60" class="image-rect"></rect> <svg filter="url(#colors6549067554)" x="0" y="0" width="60" height="60" filtersec="colorsf7517861001" class="image-svg-svg primary" style="overflow: visible;"><svg xmlns="http://www.w3.org/2000/svg" viewBox="0.10000000000000009 0 84.00001 84"><path d="M14.7 12.9c2.7-2.5 5.7-4.6 8.9-6.4l29.2 16.9L42 29.6 14.1 13.4m.6-.5c-.2.2-.4.4-.6.5m9.6-6.9l29.2 16.9 17.3-9.9C62.9 6.4 53 2 42.1 2c-1.5 0-2.9.1-4.4.2m0 0l26 15-26-15c-5 .5-9.8 2-14.1 4.3m14.1 75.3c1.4.2 2.9.2 4.4.2 16.4 0 30.4-9.8 36.6-23.9m0 0l-41 23.7M42.3 42l4.4-2.5-4.4 2.5zM14.1 13.4c-2.6 2.5-4.8 5.4-6.6 8.5L42.2 42l4.4-2.5 30.1-17.6m-62.6-8.5L42 29.6l10.9-6.2 17.3-9.9c2.5 2.5 4.7 5.3 6.5 8.4m1.3 2.4c-.4-.8-.8-1.6-1.3-2.4L46.6 39.5l6.4-3.6 21.4 12.4 6.4 3.7m-2.1-26.1c-.2-.5-.5-1.1-.7-1.6m-3.8-1l4.5 2.6m.2.3c0-.1-.1-.2-.1-.3m.8 2.3c-.2-.7-.5-1.3-.8-2m3.3 14L63.6 29.6l18.5 10.6c-.2-4.2-1-8.3-2.4-12m1.2 23.7c.8-3.2 1.2-6.5 1.2-9.9v-1.8M37.7 81.8l41-23.7c.9-2 1.6-4 2.1-6.2l-6.4-3.7-50.7 29.3m0 0c4.3 2.2 9 3.7 14.1 4.3M22.7 77c.3.2.7.4 1 .5m0 0l50.8-29.3L53 35.8l-6.4 3.6-4.3 2.6-21.6 12.3-10.8 6.2-2.5 1.4c1.8 3.2 4.1 6.1 6.8 8.7l49.4-28.5-49.4 28.5c2.5 2.5 5.4 4.6 8.5 6.3M5.4 57.8c.6 1.4 1.3 2.8 2 4.1l2.5-1.4-4.5-2.7m0 0l4.6 2.6 10.8-6.2L2.1 43.6c.2 5 1.4 9.8 3.3 14.2M42.2 42L7.5 21.9c-1.8 3.1-3.2 6.5-4.1 10l28.1 16.2L3.4 31.9c-.9 3.2-1.3 6.6-1.3 10.1v1.6l18.5 10.7L42.2 42z" fill="none" stroke="#333" stroke-width="4" stroke-miterlimit="10"></path></svg></svg> <defs><filter id="colors6549067554"><feColorMatrix type="matrix" values="0 0 0 0 0.0390625  0 0 0 0 0.0234375  0 0 0 0 0.09765625  0 0 0 1 0" class="icon-fecolormatrix"></feColorMatrix></filter> <filter id="colorsf7517861001"><feColorMatrix type="matrix" values="0 0 0 0 0.99609375  0 0 0 0 0.99609375  0 0 0 0 0.99609375  0 0 0 1 0" class="icon-fecolormatrix"></feColorMatrix></filter> <filter id="colorsb6044968352"><feColorMatrix type="matrix" values="0 0 0 0 0  0 0 0 0 0  0 0 0 0 0  0 0 0 1 0" class="icon-fecolormatrix"></feColorMatrix></filter></defs></g><rect v-gra="id" width="72" height="72" transform="translate(-6, -6)" style="pointer-events:none;" fill="url(#TU_6JmXpJHqqZkvWWxdPw)"></rect></g> <g transform="translate(67,19.324999809265137)"><g data-gra="path-name" fill-rule="" class="tp-name iconsvg-namesvg"><g transform="scale(1)"><g><path d="M9.39 0L0 0 4.41-20.77 13.21-20.77Q15.24-20.77 16.76-20.36 18.28-19.95 19.28-19 20.28-18.05 20.78-16.52 21.29-14.98 21.29-12.75L21.29-12.75Q21.29-10.37 20.68-8.08 20.08-5.79 18.67-3.99 17.27-2.19 14.99-1.1 12.72 0 9.39 0L9.39 0ZM7.55-2.29L8.96-2.29Q10.04-2.29 10.87-3.19 11.71-4.09 12.31-5.48 12.92-6.87 13.33-8.55 13.74-10.24 13.98-11.81 14.23-13.38 14.34-14.62 14.45-15.86 14.45-16.38L14.45-16.38Q14.45-17.4 14.05-17.97 13.64-18.54 12.62-18.54L12.62-18.54 11.05-18.54 7.55-2.29ZM21.65 0L26.06-20.77 39.83-20.77 39.31-18.28 32.64-18.28 31.26-11.97 36.86-11.97 36.33-9.52 30.74-9.52 29.24-2.52 35.91-2.52 35.42 0 21.65 0ZM58.47-15.83L58.47-15.83Q58.47-13.9 57.39-12.26 56.32-10.63 53.83-9.78L53.83-9.78 57.62 0 50.33 0 47.45-9.06 47.09-9.06 45.16 0 38.1 0 42.51-20.77 51.12-20.77Q52.62-20.77 53.96-20.59 55.3-20.41 56.3-19.87 57.3-19.33 57.89-18.36 58.47-17.4 58.47-15.83ZM47.52-11.15L49.06-11.15Q49.91-11.15 50.51-11.72 51.12-12.3 51.49-13.11 51.87-13.93 52.03-14.86 52.19-15.8 52.19-16.48L52.19-16.48Q52.19-17.33 51.9-17.94 51.61-18.54 50.63-18.54L50.63-18.54 49.15-18.54 47.52-11.15ZM87.25-20.77L82.81 0 75.55 0 78.55-14.13 70.8 0 66.36 0 64.88-14.62 61.74 0 58.8 0 63.22-20.77 71.56-20.77 72.57-9.06 78.85-20.77 87.25-20.77ZM102.26-20.77L104.52 0 96.87 0 96.41-5.2 90.36-5.2 88.04 0 84.87 0 94.51-20.77 102.26-20.77ZM95.43-16.48L91.44-7.59 96.18-7.59 95.43-16.48ZM124.14-14.75L118.71-14.75Q118.81-15.24 118.81-16.09L118.81-16.09Q118.81-16.58 118.75-17.05 118.68-17.53 118.52-17.91 118.35-18.28 118.03-18.49 117.7-18.71 117.18-18.71L117.18-18.71Q116.59-18.71 116.1-18.44 115.61-18.18 115.23-17.77 114.85-17.37 114.64-16.83 114.43-16.29 114.43-15.7L114.43-15.7Q114.43-14.85 114.87-14.39 115.31-13.93 116.03-13.64 116.75-13.34 117.67-13.15 118.58-12.95 119.56-12.69L119.56-12.69Q120.38-12.46 121.2-12.1 122.02-11.74 122.65-11.14 123.29-10.53 123.68-9.57 124.08-8.6 124.08-7.16L124.08-7.16Q124.08-5.1 123.26-3.7 122.44-2.29 121-1.41 119.56-0.52 117.59-0.13 115.61 0.26 113.28 0.26L113.28 0.26Q110.93 0.26 109.44-0.05 107.95-0.36 107.1-0.72L107.1-0.72Q106.09-1.14 105.6-1.7L105.6-1.7 106.71-6.18 112.47-6.18Q112.43-5.89 112.4-5.38 112.37-4.87 112.37-4.58L112.37-4.58Q112.37-4.19 112.47-3.76 112.57-3.34 112.78-2.98 112.99-2.62 113.38-2.39 113.78-2.16 114.36-2.16L114.36-2.16Q115.02-2.16 115.53-2.45 116.03-2.75 116.38-3.19 116.72-3.63 116.9-4.17 117.08-4.71 117.08-5.23L117.08-5.23Q117.08-5.95 116.74-6.44 116.39-6.93 115.8-7.28 115.21-7.62 114.45-7.87 113.68-8.11 112.86-8.37L112.86-8.37Q112.07-8.6 111.21-8.93 110.34-9.26 109.62-9.84 108.9-10.43 108.43-11.33 107.95-12.23 107.95-13.64L107.95-13.64Q107.95-15.73 109.02-17.15 110.08-18.58 111.7-19.46 113.32-20.34 115.25-20.72 117.18-21.09 118.91-21.09L118.91-21.09Q121.2-21.09 122.85-20.55 124.5-20.01 125.35-19.3L125.35-19.3 124.14-14.75ZM145.17-20.77L144.61-18.28 139.35-18.28 135.46 0 128.39 0 132.29-18.28 127.09-18.28 127.67-20.77 145.17-20.77ZM142.85 0L147.26-20.77 161.03-20.77 160.51-18.28 153.84-18.28 152.46-11.97 158.06-11.97 157.53-9.52 151.94-9.52 150.44-2.52 157.11-2.52 156.62 0 142.85 0ZM179.67-15.83L179.67-15.83Q179.67-13.9 178.59-12.26 177.51-10.63 175.03-9.78L175.03-9.78 178.82 0 171.53 0 168.65-9.06 168.29-9.06 166.36 0 159.3 0 163.71-20.77 172.31-20.77Q173.82-20.77 175.16-20.59 176.5-20.41 177.5-19.87 178.5-19.33 179.08-18.36 179.67-17.4 179.67-15.83ZM168.72-11.15L170.25-11.15Q171.1-11.15 171.71-11.72 172.31-12.3 172.69-13.11 173.07-13.93 173.23-14.86 173.39-15.8 173.39-16.48L173.39-16.48Q173.39-17.33 173.1-17.94 172.81-18.54 171.82-18.54L171.82-18.54 170.35-18.54 168.72-11.15Z" transform="translate(0, 21.09000015258789)"></path></g> <!----> <!----> <!----> <!----> <!----> <!----> <!----></g></g> <!----></g></g><defs v-gra="od"></defs><defs v-gra="id"><filter id="445f409c-43ec-4202-baeb-d5d1c5c5a904" filterUnits="userSpaceOnUse"><feColorMatrix type="matrix" values="0 0 0 0 0.99609375  0 0 0 0 0.99609375  0 0 0 0 0.99609375  0 0 0 1 0"></feColorMatrix></filter><linearGradient x1="0" y1="1" x2="0" y2="0" id="TU_6JmXpJHqqZkvWWxdPw"><stop offset="0%" stop-color="#03001e"></stop><stop offset="33.33%" stop-color="#7303c0"></stop><stop offset="66.67%" stop-color="#ec38bc"></stop><stop offset="100%" stop-color="#fdeff9"></stop></linearGradient><filter id="42443b3f1de60f6b6fd3b6a9844b4764" filterUnits="objectBoundingBox"><feColorMatrix type="matrix" values="0 0 0 0 0.99609375  0 0 0 0 0.99609375  0 0 0 0 0.99609375  0 0 0 1 0"></feColorMatrix></filter></defs><mask v-gra="im" id="b40c3d70-8f0c-4c43-80e2-6d1cd3440251"><g class="iconsvg-imagesvg" filter="url(#445f409c-43ec-4202-baeb-d5d1c5c5a904)"><g><rect fill="#0a0619" fill-opacity="0" stroke-width="2" x="0" y="0" width="60" height="60" class="image-rect"></rect> <svg x="0" y="0" width="60" height="60" filtersec="colorsf7517861001" class="image-svg-svg primary" style="overflow: visible;"><svg xmlns="http://www.w3.org/2000/svg" viewBox="0.10000000000000009 0 84.00001 84"><path d="M14.7 12.9c2.7-2.5 5.7-4.6 8.9-6.4l29.2 16.9L42 29.6 14.1 13.4m.6-.5c-.2.2-.4.4-.6.5m9.6-6.9l29.2 16.9 17.3-9.9C62.9 6.4 53 2 42.1 2c-1.5 0-2.9.1-4.4.2m0 0l26 15-26-15c-5 .5-9.8 2-14.1 4.3m14.1 75.3c1.4.2 2.9.2 4.4.2 16.4 0 30.4-9.8 36.6-23.9m0 0l-41 23.7M42.3 42l4.4-2.5-4.4 2.5zM14.1 13.4c-2.6 2.5-4.8 5.4-6.6 8.5L42.2 42l4.4-2.5 30.1-17.6m-62.6-8.5L42 29.6l10.9-6.2 17.3-9.9c2.5 2.5 4.7 5.3 6.5 8.4m1.3 2.4c-.4-.8-.8-1.6-1.3-2.4L46.6 39.5l6.4-3.6 21.4 12.4 6.4 3.7m-2.1-26.1c-.2-.5-.5-1.1-.7-1.6m-3.8-1l4.5 2.6m.2.3c0-.1-.1-.2-.1-.3m.8 2.3c-.2-.7-.5-1.3-.8-2m3.3 14L63.6 29.6l18.5 10.6c-.2-4.2-1-8.3-2.4-12m1.2 23.7c.8-3.2 1.2-6.5 1.2-9.9v-1.8M37.7 81.8l41-23.7c.9-2 1.6-4 2.1-6.2l-6.4-3.7-50.7 29.3m0 0c4.3 2.2 9 3.7 14.1 4.3M22.7 77c.3.2.7.4 1 .5m0 0l50.8-29.3L53 35.8l-6.4 3.6-4.3 2.6-21.6 12.3-10.8 6.2-2.5 1.4c1.8 3.2 4.1 6.1 6.8 8.7l49.4-28.5-49.4 28.5c2.5 2.5 5.4 4.6 8.5 6.3M5.4 57.8c.6 1.4 1.3 2.8 2 4.1l2.5-1.4-4.5-2.7m0 0l4.6 2.6 10.8-6.2L2.1 43.6c.2 5 1.4 9.8 3.3 14.2M42.2 42L7.5 21.9c-1.8 3.1-3.2 6.5-4.1 10l28.1 16.2L3.4 31.9c-.9 3.2-1.3 6.6-1.3 10.1v1.6l18.5 10.7L42.2 42z" fill="none" stroke="#333" stroke-width="4" stroke-miterlimit="10"></path></svg></svg> <defs><filter id="colors6549067554"><feColorMatrix type="matrix" values="0 0 0 0 0.0390625  0 0 0 0 0.0234375  0 0 0 0 0.09765625  0 0 0 1 0" class="icon-fecolormatrix"></feColorMatrix></filter> <filter id="colorsf7517861001"><feColorMatrix type="matrix" values="0 0 0 0 0.99609375  0 0 0 0 0.99609375  0 0 0 0 0.99609375  0 0 0 1 0" class="icon-fecolormatrix"></feColorMatrix></filter> <filter id="colorsb6044968352"><feColorMatrix type="matrix" values="0 0 0 0 0  0 0 0 0 0  0 0 0 0 0  0 0 0 1 0" class="icon-fecolormatrix"></feColorMatrix></filter></defs></g></g></mask></svg>